<svg width="51" height="50" viewBox="0 0 51 50" fill="none" xmlns="http://www.w3.org/2000/svg">
<path d="M49.9868 25C49.9868 38.2365 39.0393 49 25.4934 49C11.9476 49 1 38.2365 1 25C1 11.7635 11.9476 1 25.4934 1C39.0393 1 49.9868 11.7635 49.9868 25Z" stroke="white" stroke-width="2"/>
<path d="M27.2723 38.616V26.2259H31.8025L32.4759 21.3748H27.2723V18.2848C27.2723 16.8849 27.695 15.9265 29.8724 15.9265H32.6315V11.6014C31.2891 11.4687 29.9397 11.4046 28.5896 11.4094C24.5853 11.4094 21.8361 13.6649 21.8361 17.8056V21.3657H17.3354V26.2168H21.846V38.616H27.2723Z" fill="#FFFDFD" fill-opacity="0.8"/>
</svg>
