<svg width="52" height="50" viewBox="0 0 52 50" fill="none" xmlns="http://www.w3.org/2000/svg">
<path d="M50.3946 25C50.3946 38.2365 39.447 49 25.9011 49C12.3553 49 1.40771 38.2365 1.40771 25C1.40771 11.7635 12.3553 1 25.9011 1C39.447 1 50.3946 11.7635 50.3946 25Z" stroke="white" stroke-width="2"/>
<path d="M25.3896 18.7578C23.5659 18.7578 21.8168 19.4683 20.5272 20.7329C19.2377 21.9975 18.5132 23.7127 18.5132 25.5011C18.5132 27.2896 19.2377 29.0048 20.5272 30.2694C21.8168 31.534 23.5659 32.2445 25.3896 32.2445C27.2133 32.2445 28.9624 31.534 30.252 30.2694C31.5416 29.0048 32.266 27.2896 32.266 25.5011C32.266 23.7127 31.5416 21.9975 30.252 20.7329C28.9624 19.4683 27.2133 18.7578 25.3896 18.7578ZM25.3896 29.8805C24.2048 29.8805 23.0685 29.419 22.2308 28.5974C21.393 27.7758 20.9223 26.6616 20.9223 25.4997C20.9223 24.3378 21.393 23.2235 22.2308 22.402C23.0685 21.5804 24.2048 21.1189 25.3896 21.1189C26.5744 21.1189 27.7107 21.5804 28.5485 22.402C29.3862 23.2235 29.8569 24.3378 29.8569 25.4997C29.8569 26.6616 29.3862 27.7758 28.5485 28.5974C27.7107 29.419 26.5744 29.8805 25.3896 29.8805Z" fill="white" fill-opacity="0.8"/>
<path d="M32.5382 20.0826C33.4235 20.0826 34.1413 19.3788 34.1413 18.5106C34.1413 17.6423 33.4235 16.9385 32.5382 16.9385C31.6528 16.9385 30.9351 17.6423 30.9351 18.5106C30.9351 19.3788 31.6528 20.0826 32.5382 20.0826Z" fill="white" fill-opacity="0.8"/>
<path d="M38.0809 16.9114C37.7366 16.0396 37.2105 15.2479 36.5363 14.5869C35.862 13.926 35.0545 13.4104 34.1653 13.0731C33.1248 12.6901 32.0256 12.483 30.9145 12.4606C29.4824 12.3993 29.0288 12.3818 25.3973 12.3818C21.7657 12.3818 21.3003 12.3818 19.8801 12.4606C18.7698 12.4818 17.6713 12.689 16.6322 13.0731C15.7428 13.41 14.9351 13.9254 14.2608 14.5864C13.5865 15.2474 13.0605 16.0394 12.7166 16.9114C12.326 17.9317 12.1153 19.0097 12.0935 20.0993C12.0296 21.5023 12.0103 21.947 12.0103 25.5098C12.0103 29.071 12.0103 29.5245 12.0935 30.9202C12.1158 32.011 12.3255 33.0872 12.7166 34.1095C13.0615 34.9813 13.5879 35.7729 14.2624 36.4338C14.9369 37.0947 15.7445 37.6104 16.6337 37.9479C17.6709 38.3463 18.7697 38.5682 19.883 38.6041C21.3151 38.6654 21.7687 38.6843 25.4002 38.6843C29.0318 38.6843 29.4973 38.6843 30.9174 38.6041C32.0285 38.582 33.1276 38.3754 34.1683 37.9931C35.0572 37.655 35.8645 37.139 36.5387 36.4778C37.2129 35.8167 37.7391 35.025 38.0839 34.1533C38.475 33.1325 38.6847 32.0562 38.707 30.9654C38.7709 29.5625 38.7902 29.1177 38.7902 25.555C38.7902 21.9923 38.7902 21.5402 38.707 20.1445C38.6897 19.0395 38.4778 17.9457 38.0809 16.9114ZM36.2696 30.8123C36.26 31.6527 36.1036 32.4853 35.8071 33.2739C35.5838 33.841 35.2419 34.356 34.8034 34.7857C34.3649 35.2155 33.8396 35.5505 33.2611 35.7691C32.4659 36.0585 31.6259 36.2119 30.7777 36.2227C29.3649 36.2868 28.9664 36.3029 25.3437 36.3029C21.7181 36.3029 21.3479 36.3029 19.9083 36.2227C19.0606 36.2125 18.2209 36.0591 17.4263 35.7691C16.8459 35.5518 16.3184 35.2174 15.8781 34.7876C15.4377 34.3578 15.0943 33.8421 14.87 33.2739C14.5777 32.4938 14.4213 31.671 14.4075 30.84C14.3435 29.4545 14.3287 29.0637 14.3287 25.5112C14.3287 21.9573 14.3287 21.5941 14.4075 20.181C14.4171 19.341 14.5735 18.5089 14.87 17.7208C15.3235 16.5702 16.253 15.6645 17.4263 15.2241C18.2213 14.9356 19.0607 14.7822 19.9083 14.7706C21.3226 14.7079 21.7196 14.6904 25.3437 14.6904C28.9678 14.6904 29.3396 14.6904 30.7777 14.7706C31.6259 14.7806 32.4661 14.934 33.2611 15.2241C33.8395 15.4433 34.3648 15.7786 34.8032 16.2085C35.2417 16.6385 35.5836 17.1536 35.8071 17.7208C36.0994 18.5009 36.2557 19.3237 36.2696 20.1548C36.3335 21.5416 36.3499 21.931 36.3499 25.485C36.3499 29.0375 36.3499 29.4195 36.2859 30.8137H36.2696V30.8123Z" fill="white" fill-opacity="0.8"/>
</svg>
