<svg width="52" height="50" viewBox="0 0 52 50" fill="none" xmlns="http://www.w3.org/2000/svg">
<path d="M50.5987 25C50.5987 38.2365 39.6511 49 26.1052 49C12.5594 49 1.61182 38.2365 1.61182 25C1.61182 11.7635 12.5594 1 26.1052 1C39.6511 1 50.5987 11.7635 50.5987 25Z" stroke="white" stroke-width="2"/>
<path d="M37.841 15.5147C36.3831 15.2164 35.0642 14.4961 34.0736 13.4571C33.083 12.4181 32.4717 11.1139 32.3273 9.73154V9.13281H27.2815V27.7341C27.2825 28.5594 27.0044 29.3642 26.4865 30.0343C25.9686 30.7045 25.2373 31.206 24.396 31.4679C23.5547 31.7298 22.6462 31.7388 21.7991 31.4936C20.9521 31.2484 20.2094 30.7615 19.6763 30.1018C19.1987 29.5178 18.9062 28.8211 18.832 28.0906C18.7578 27.36 18.9047 26.6247 19.2562 25.9678C19.6077 25.3109 20.1498 24.7586 20.821 24.3734C21.4923 23.9882 22.2661 23.7854 23.0548 23.7879C23.4909 23.7856 23.925 23.8453 24.3418 23.9648V19.2023C23.8567 19.1464 23.3679 19.1236 22.8793 19.1342C21.0793 19.179 19.3325 19.7111 17.8526 20.6654C16.3728 21.6197 15.2242 22.9549 14.5474 24.5073C13.8707 26.0597 13.6952 27.762 14.0425 29.4058C14.3897 31.0496 15.2447 32.5635 16.5026 33.7621C17.7918 34.9816 19.4415 35.817 21.2422 36.1622C23.0429 36.5074 24.9132 36.3467 26.6155 35.7006C28.3179 35.0546 29.7753 33.9522 30.8027 32.5337C31.8302 31.1152 32.3812 29.4446 32.3858 27.7341V18.2089C34.4208 19.5614 36.8611 20.2849 39.3621 20.2772V15.6507C38.8708 15.6526 38.3807 15.607 37.8995 15.5147H37.841Z" fill="white" fill-opacity="0.8"/>
</svg>
