<svg width="52" height="50" viewBox="0 0 52 50" fill="none" xmlns="http://www.w3.org/2000/svg">
<path d="M50.1909 25C50.1909 38.2365 39.2434 49 25.6975 49C12.1517 49 1.2041 38.2365 1.2041 25C1.2041 11.7635 12.1517 1 25.6975 1C39.2434 1 50.1909 11.7635 50.1909 25Z" stroke="white" stroke-width="2"/>
<path d="M37.3548 17.9562C37.3716 18.2545 37.3716 18.5511 37.3716 18.8476C37.3716 27.924 32.1139 38.3826 22.5052 38.3826C19.5449 38.3826 16.7948 37.256 14.4805 35.2992C14.9008 35.3623 15.3055 35.3845 15.7427 35.3845C18.0946 35.3919 20.3799 34.3586 22.2302 32.4511C21.1398 32.4251 20.0827 31.9524 19.2066 31.099C18.3306 30.2455 17.6792 29.0539 17.3435 27.6905C17.6665 27.7535 17.9908 27.7961 18.3307 27.7961C18.799 27.7961 19.2699 27.7109 19.7071 27.5626C18.5237 27.2487 17.4596 26.4059 16.6957 25.1775C15.9318 23.9492 15.5153 22.4111 15.517 20.8248V20.7396C16.2136 21.2492 17.0218 21.568 17.8779 21.6106C17.1607 20.9843 16.5726 20.1345 16.166 19.137C15.7595 18.1395 15.5472 17.0253 15.5481 15.8938C15.5481 14.6188 15.8063 13.4496 16.259 12.4303C17.572 14.5524 19.2096 16.2885 21.0657 17.5261C22.9218 18.7637 24.9551 19.4752 27.0339 19.6146C26.9535 19.1033 26.9042 18.5732 26.9042 18.0414C26.9038 17.1397 27.0387 16.2467 27.3012 15.4135C27.5637 14.5803 27.9486 13.8233 28.4339 13.1857C28.9191 12.5481 29.4953 12.0424 30.1294 11.6975C30.7635 11.3526 31.4432 11.1753 32.1295 11.1758C33.6343 11.1758 34.9925 12.0042 35.9472 13.3439C37.1171 13.0466 38.2389 12.4855 39.263 11.6854C38.8731 13.272 38.0563 14.6173 36.9656 15.4694C38.0031 15.3139 39.0171 14.9554 39.9739 14.4058C39.2593 15.7746 38.3738 16.975 37.3548 17.9562Z" fill="white" fill-opacity="0.8"/>
</svg>
